<svg width="26" height="26" viewBox="0 0 26 26" fill="none" xmlns="http://www.w3.org/2000/svg">
<path fill-rule="evenodd" clip-rule="evenodd" d="M5.41675 5.41669C3.62182 5.41669 2.16675 6.87176 2.16675 8.66669V17.3334C2.16675 19.1283 3.62182 20.5834 5.41675 20.5834H20.5834C22.3783 20.5834 23.8334 19.1283 23.8334 17.3334V8.66669C23.8334 6.87176 22.3783 5.41669 20.5834 5.41669H5.41675ZM5.95415 7.72608C5.43467 7.42923 4.77291 7.60971 4.47607 8.12919C4.17923 8.64867 4.35971 9.31043 4.87918 9.60727L12.4625 13.9406C12.7956 14.1309 13.2044 14.1309 13.5375 13.9406L21.1208 9.60727C21.6403 9.31043 21.8208 8.64867 21.5239 8.12919C21.2271 7.60971 20.5653 7.42923 20.0458 7.72608L13 11.7523L5.95415 7.72608Z" fill="#989BA1"/>
</svg>
