<svg width="22" height="22" viewBox="0 0 22 22" fill="none" xmlns="http://www.w3.org/2000/svg">
<path d="M3.49367 9.38017L7.16335 8.63645C7.41749 8.58495 7.63793 8.42821 7.77004 8.20508L10.2113 4.08214C10.5662 3.48263 11.4338 3.48263 11.7888 4.08214L14.23 8.20508C14.3621 8.42821 14.5826 8.58495 14.8367 8.63645L18.5064 9.38017C19.2202 9.52484 19.4884 10.404 18.9768 10.9225L15.9242 14.0158C15.711 14.2318 15.6185 14.5394 15.6773 14.8371L16.365 18.3214C16.5129 19.0709 15.7329 19.6619 15.0514 19.3166L11.4143 17.4738C11.1539 17.3418 10.8462 17.3418 10.5857 17.4738L6.94868 19.3166C6.26718 19.6619 5.48713 19.0709 5.63507 18.3214L6.32275 14.8371C6.38152 14.5393 6.28908 14.2318 6.07589 14.0158L3.02329 10.9225C2.5117 10.404 2.77985 9.52484 3.49367 9.38017Z" fill="#FF9376"/>
</svg>
